<?xml version="1.0" encoding="UTF-8" standalone="no"?>
<!-- Created with Inkscape (http://www.inkscape.org/) -->

<svg
   width="450"
   height="90"
   viewBox="0 0 119.0625 23.8125"
   version="1.1"
   id="svg1"
   inkscape:version="1.3.2 (091e20e, 2023-11-25, custom)"
   sodipodi:docname="logo.svg"
   xmlns:inkscape="http://www.inkscape.org/namespaces/inkscape"
   xmlns:sodipodi="http://sodipodi.sourceforge.net/DTD/sodipodi-0.dtd"
   xmlns="http://www.w3.org/2000/svg"
   xmlns:svg="http://www.w3.org/2000/svg">
  <sodipodi:namedview
     id="namedview1"
     pagecolor="#ffffff"
     bordercolor="#000000"
     borderopacity="0.25"
     inkscape:showpageshadow="2"
     inkscape:pageopacity="0.0"
     inkscape:pagecheckerboard="0"
     inkscape:deskcolor="#d1d1d1"
     inkscape:document-units="mm"
     inkscape:zoom="2.768771"
     inkscape:cx="213.4521"
     inkscape:cy="70.247773"
     inkscape:window-width="1920"
     inkscape:window-height="991"
     inkscape:window-x="-9"
     inkscape:window-y="-9"
     inkscape:window-maximized="1"
     inkscape:current-layer="g2" />
  <defs
     id="defs1">
    <clipPath
       clipPathUnits="userSpaceOnUse"
       id="clipPath3">
      <path
         d="M 9.12e-6,0 H 612.00001 V 792 H 9.12e-6 Z"
         transform="matrix(1,0,0,-1,-70.824002,674.86001)"
         clip-rule="evenodd"
         id="path3" />
    </clipPath>
    <clipPath
       clipPathUnits="userSpaceOnUse"
       id="clipPath5">
      <path
         d="M 9.12e-6,0 H 612.00001 V 792 H 9.12e-6 Z"
         transform="matrix(1,0,0,-1,-98.784002,674.86001)"
         clip-rule="evenodd"
         id="path5" />
    </clipPath>
    <clipPath
       clipPathUnits="userSpaceOnUse"
       id="clipPath7">
      <path
         d="M 9.12e-6,0 H 612.00001 V 792 H 9.12e-6 Z"
         transform="matrix(1,0,0,-1,-215.33001,674.86001)"
         clip-rule="evenodd"
         id="path7" />
    </clipPath>
    <clipPath
       clipPathUnits="userSpaceOnUse"
       id="clipPath9">
      <path
         d="M 9.12e-6,0 H 612.00001 V 792 H 9.12e-6 Z"
         transform="matrix(1,0,0,-1,-238.73001,674.86001)"
         clip-rule="evenodd"
         id="path9" />
    </clipPath>
  </defs>
  <g
     inkscape:label="Ebene 1"
     inkscape:groupmode="layer"
     id="layer1">
    <g
       id="g2"
       transform="matrix(0.26458333,0,0,0.26458333,-23.249227,-25.672852)">
      <path
         id="path2"
         d="m 20.040258,-20.507188 0.04687,-0.585937 c 0.04687,-0.75 0.07031,-1.397461 0.07031,-1.945313 0,-2.953125 -0.392578,-5.097656 -1.171875,-6.433593 -0.782226,-1.335938 -2.000976,-2.003907 -3.65625,-2.003907 -1.142578,0 -2.200195,0.269532 -3.175781,0.808594 -0.978516,0.539063 -1.933594,1.371094 -2.8710937,2.496094 h -1.6875 v -1.945313 c 1.4824219,-1.045898 2.6367187,-1.792968 3.4570317,-2.238281 0.820312,-0.445312 1.640625,-0.776367 2.460937,-0.996094 0.820313,-0.216796 1.713867,-0.328125 2.683594,-0.328125 2.607422,0 4.561523,0.887696 5.859375,2.660157 1.294922,1.77539 1.945312,4.458984 1.945312,8.050781 0,1.423828 -0.125976,3.114258 -0.375,5.074219 -0.251953,1.96289 -0.673828,4.004883 -1.265625,6.128906 -0.594726,2.1269531 -1.283203,3.9316406 -2.0625,5.4140625 -0.782226,1.4853516 -1.649414,2.7128906 -2.601562,3.6796875 -0.955078,0.9697266 -2.050781,1.71972656 -3.292969,2.25 -1.242187,0.53027344 -2.645508,0.796875 -4.207031,0.796875 -2.3437502,0 -4.2011721,-0.703125 -5.5664064,-2.109375 C 3.2619375,-3.14 2.5793203,-5.2025 2.5793203,-7.92125 c 0,-2.452148 0.515625,-4.810547 1.546875,-7.078125 1.03125,-2.264648 2.4433594,-4.066406 4.2421875,-5.402344 1.7958982,-1.335937 3.7646482,-2.003906 5.9062502,-2.003906 1.125,0 2.109375,0.128906 2.953125,0.386719 0.84375,0.257812 1.78125,0.761718 2.8125,1.511718 z m -1.125,4.5 c 0,-1.59375 -0.325195,-2.748046 -0.972656,-3.46875 -0.650391,-0.717773 -1.637696,-1.078125 -2.964844,-1.078125 -1.453125,0 -2.800781,0.574219 -4.042969,1.722657 -1.2421874,1.148437 -2.2558593,2.871093 -3.0351562,5.167968 -0.7822265,2.296875 -1.171875,4.570313 -1.171875,6.820313 0,1.40625 0.1523438,2.5048828 0.4570313,3.2929687 0.3046875,0.7910157 0.7060547,1.3330079 1.2070312,1.6289063 0.4980469,0.2988281 1.125,0.4453125 1.8749997,0.4453125 1.6875,0 3.128907,-0.6738281 4.324219,-2.0273438 1.195313,-1.3505859 2.214844,-3.3808593 3.058594,-6.09375 0.84375,-2.7099607 1.265625,-4.8457027 1.265625,-6.4101567 z m 0,0"
         style="fill:#000000;fill-opacity:1;fill-rule:nonzero;stroke:none"
         aria-label="𝜕"
         transform="matrix(1.3333333,0,0,1.3333333,119.45988,162.82672)"
         clip-path="url(#clipPath3)" />
      <path
         id="path4"
         d="M 4.5226406,-33.98375 H 15.796078 c 2.109375,0 4.22461,0.351562 6.351563,1.054687 2.124023,0.703125 4.042968,1.766602 5.753906,3.1875 1.710937,1.423829 3.09668,3.199219 4.160156,5.332032 1.060547,2.132812 1.59375,4.605468 1.59375,7.417968 0,2.844727 -0.533203,5.326172 -1.59375,7.4414067 -1.063476,2.1181641 -2.449219,3.8876954 -4.160156,5.3085938 -1.710938,1.4238281 -3.629883,2.484375 -5.753906,3.1875 C 20.020688,-0.3509375 17.905453,6.25e-4 15.796078,6.25e-4 H 4.5226406 Z M 14.835141,-3.0696875 c 2.560547,0 4.792968,-0.3984375 6.691406,-1.1953125 1.898437,-0.796875 3.47168,-1.8427734 4.722656,-3.140625 1.248047,-1.2949219 2.185547,-2.777344 2.8125,-4.441406 0.624024,-1.664063 0.9375,-3.37793 0.9375,-5.144532 0,-1.763671 -0.313476,-3.480468 -0.9375,-5.144531 -0.626953,-1.664062 -1.564453,-3.143554 -2.8125,-4.441406 -1.250976,-1.294922 -2.824219,-2.34375 -4.722656,-3.140625 -1.898438,-0.796875 -4.130859,-1.195313 -6.691406,-1.195313 H 7.9679531 V -3.0696875 Z M 40.039242,-31.100938 c 0,-0.670898 0.237305,-1.221679 0.714844,-1.652343 0.474609,-0.427735 1.001953,-0.644532 1.582031,-0.644532 0.577149,0 1.104492,0.216797 1.582031,0.644532 0.47461,0.430664 0.714844,0.981445 0.714844,1.652343 0,0.673829 -0.240234,1.22461 -0.714844,1.652344 -0.477539,0.430664 -1.004882,0.644531 -1.582031,0.644531 -0.580078,0 -1.107422,-0.213867 -1.582031,-0.644531 -0.477539,-0.427734 -0.714844,-0.978515 -0.714844,-1.652344 z m 0.65625,8.648438 h 3.28125 V 6.25e-4 h -3.28125 z m 12.914063,2.71875 h -4.6875 v -2.71875 h 4.6875 v -6.164063 c 0,-2.545898 0.624023,-4.558593 1.875,-6.035156 1.248047,-1.476562 3.169922,-2.214844 5.765625,-2.214844 0.421875,0 0.870117,0.02344 1.347656,0.07031 0.474609,0.04687 0.925781,0.134766 1.347656,0.257812 l -0.585937,2.882813 c -0.360352,-0.09375 -0.714844,-0.169922 -1.066407,-0.234375 -0.351562,-0.06152 -0.74707,-0.09375 -1.183593,-0.09375 -0.875977,0 -1.590821,0.146484 -2.144532,0.433594 -0.55664,0.290039 -0.984375,0.697265 -1.289062,1.21875 -0.304688,0.524414 -0.512695,1.142578 -0.621094,1.851562 -0.111328,0.711914 -0.164062,1.464844 -0.164062,2.261719 v 5.765625 h 5.273437 v 2.71875 H 56.890805 V 6.25e-4 h -3.28125 z m 14.159179,0 h -4.6875 v -2.71875 h 4.6875 v -6.164063 c 0,-2.545898 0.624024,-4.558593 1.875,-6.035156 1.248047,-1.476562 3.169922,-2.214844 5.765625,-2.214844 0.421875,0 0.870118,0.02344 1.347657,0.07031 0.474609,0.04687 0.925781,0.134766 1.347656,0.257812 l -0.585938,2.882813 c -0.360351,-0.09375 -0.714843,-0.169922 -1.066406,-0.234375 -0.351562,-0.06152 -0.74707,-0.09375 -1.183594,-0.09375 -0.875976,0 -1.59082,0.146484 -2.144531,0.433594 -0.55664,0.290039 -0.984375,0.697265 -1.289062,1.21875 -0.304688,0.524414 -0.512696,1.142578 -0.621094,1.851562 -0.111328,0.711914 -0.164063,1.464844 -0.164063,2.261719 v 5.765625 h 5.273438 v 2.71875 H 71.049984 V 6.25e-4 h -3.28125 z m 12.539063,-11.367188 c 0,-0.670898 0.237305,-1.221679 0.714844,-1.652343 0.474609,-0.427735 1.001953,-0.644532 1.582031,-0.644532 0.577148,0 1.104492,0.216797 1.582031,0.644532 0.47461,0.430664 0.714844,0.981445 0.714844,1.652343 0,0.673829 -0.240234,1.22461 -0.714844,1.652344 -0.477539,0.430664 -1.004883,0.644531 -1.582031,0.644531 -0.580078,0 -1.107422,-0.213867 -1.582031,-0.644531 -0.477539,-0.427734 -0.714844,-0.978515 -0.714844,-1.652344 z m 0.65625,8.648438 h 3.28125 V 6.25e-4 h -3.28125 z m 11.956055,4.921875 c 0,-0.591797 -0.01758,-1.371094 -0.04687,-2.332031 -0.03223,-0.960938 -0.0791,-1.822266 -0.140625,-2.589844 h 3.117187 c 0.06152,0.594727 0.108399,1.262695 0.140625,2.003906 0.0293,0.744141 0.04687,1.347656 0.04687,1.816406 h 0.117188 c 0.624023,-1.3125 1.658203,-2.373046 3.105468,-3.1875 1.444335,-0.811523 2.964845,-1.21875 4.558595,-1.21875 2.8418,0 4.98047,0.84961 6.41016,2.542969 1.42968,1.696289 2.14453,3.934571 2.14453,6.714844 V 6.25e-4 h -3.28125 V -12.42125 c 0,-1.186523 -0.0937,-2.261719 -0.28125,-3.222656 -0.1875,-0.960938 -0.5127,-1.78418 -0.97266,-2.472657 -0.46289,-0.685546 -1.08691,-1.221679 -1.875,-1.605468 -0.79102,-0.38086 -1.77832,-0.574219 -2.96484,-0.574219 -0.86133,0 -1.69629,0.175781 -2.50782,0.527344 -0.814449,0.351562 -1.541012,0.887695 -2.179683,1.605468 -0.641602,0.720704 -1.154297,1.628907 -1.535157,2.730469 -0.383789,1.101563 -0.574218,2.402344 -0.574218,3.902344 V 6.25e-4 h -3.28125 z m 0,0"
         style="fill:#000000;fill-opacity:1;fill-rule:nonzero;stroke:none"
         aria-label="Diffn"
         transform="matrix(1.3333333,0,0,1.3333333,156.73988,162.82672)"
         clip-path="url(#clipPath5)" />
      <path
         id="path6"
         d="M 1.4756641,11.227187 1.8272266,8.250625 c 0.7646484,0.2636719 1.5615234,0.3984375 2.390625,0.3984375 1.125,0 2.0068359,-0.3457031 2.6484375,-1.03125 0.6386718,-0.6884766 1.2011718,-1.6728516 1.6875,-2.953125 L 10.358477,-0.04625 0.77253906,-22.4525 H 4.4053516 L 12.045977,-3.515 h 0.09375 l 6.960937,-18.9375 h 3.5625 L 11.460039,5.813125 C 10.786211,7.5299219 9.9307422,8.9127344 8.8936328,9.9615625 7.8535937,11.007461 6.3565234,11.531875 4.4053516,11.531875 c -0.984375,0 -1.9628907,-0.102539 -2.9296875,-0.304688 z m 0,0"
         style="fill:#000000;fill-opacity:1;fill-rule:nonzero;stroke:none"
         aria-label="y"
         transform="matrix(1.3333333,0,0,1.3333333,312.13455,162.82672)"
         clip-path="url(#clipPath7)" />
      <path
         id="path8"
         d="M 11.95457,-30.913438 H 0.58738281 V -33.98375 H 26.790508 v 3.070312 H 15.399883 V 6.25e-4 H 11.95457 Z m 15.398438,13.382813 c 0,-0.591797 -0.01758,-1.371094 -0.04687,-2.332031 -0.03223,-0.960938 -0.0791,-1.822266 -0.140625,-2.589844 H 30.2827 c 0.06152,0.594727 0.108399,1.262695 0.140625,2.003906 0.0293,0.744141 0.04687,1.347656 0.04687,1.816406 h 0.117188 c 0.624023,-1.3125 1.576172,-2.373046 2.859375,-3.1875 1.280273,-0.811523 2.724609,-1.21875 4.335937,-1.21875 0.404297,0 0.776368,0.01758 1.113282,0.04687 0.333984,0.03223 0.682617,0.09375 1.042968,0.1875 l -0.445312,3.070313 c -0.1875,-0.06152 -0.503906,-0.123047 -0.949219,-0.1875 -0.445312,-0.06152 -0.896484,-0.09375 -1.347656,-0.09375 -0.861328,0 -1.69336,0.161133 -2.496094,0.480469 -0.805664,0.322265 -1.5,0.826172 -2.085937,1.511718 -0.585938,0.688477 -1.063477,1.567383 -1.429688,2.636719 -0.369141,1.072266 -0.550781,2.355469 -0.550781,3.855469 V 6.25e-4 h -3.28125 z M 42.344219,-6.23375 c 0,-1.734375 0.436523,-3.1054688 1.3125,-4.113281 0.873047,-1.007813 2.050781,-1.757813 3.527344,-2.25 1.476562,-0.492188 3.164062,-0.811524 5.0625,-0.960938 1.898437,-0.146484 3.870117,-0.222656 5.917968,-0.222656 v -0.703125 c 0,-1.951172 -0.512695,-3.410156 -1.535156,-4.371094 -1.025391,-0.960937 -2.513672,-1.441406 -4.464844,-1.441406 -1.344726,0 -2.589843,0.240234 -3.738281,0.714844 -1.148437,0.477539 -2.121094,1.113281 -2.917969,1.910156 l -1.828125,-2.15625 c 0.919922,-0.919922 2.144532,-1.6875 3.667969,-2.296875 1.523438,-0.609375 3.246094,-0.914063 5.167969,-0.914063 1.21875,0 2.355469,0.169922 3.410156,0.503907 1.054688,0.336914 1.980469,0.84082 2.777344,1.511718 0.796875,0.673829 1.420898,1.520508 1.875,2.542969 0.451172,1.025391 0.679687,2.223633 0.679687,3.597656 v 9.8437505 c 0,0.8613281 0.0293,1.7548828 0.09375,2.6835937 0.06152,0.9316407 0.155274,1.71679692 0.28125,2.3554688 h -2.929687 c -0.09375,-0.54492188 -0.172852,-1.1396484 -0.234375,-1.78125 -0.06445,-0.6386719 -0.09375,-1.265625 -0.09375,-1.875 h -0.09375 c -1.03125,1.5175781 -2.197266,2.6015625 -3.492188,3.2578125 -1.297851,0.65625 -2.859375,0.984375 -4.6875,0.984375 -0.861328,0 -1.746093,-0.12304688 -2.660156,-0.36328125 -0.914062,-0.24023438 -1.746094,-0.63574219 -2.496094,-1.18359375 -0.75,-0.5449219 -1.371093,-1.2480469 -1.863281,-2.109375 -0.492187,-0.8583984 -0.738281,-1.9130859 -0.738281,-3.1640625 z m 15.820312,-3.328125 v -1.664063 h -0.9375 c -1.344726,0 -2.701172,0.05566 -4.066406,0.164063 -1.368164,0.111328 -2.601562,0.333984 -3.703125,0.667969 -1.101562,0.336914 -2.003906,0.8261716 -2.707031,1.4648435 -0.703125,0.6416016 -1.054688,1.4941406 -1.054688,2.5546875 0,0.796875 0.152344,1.4648437 0.457032,2.0039062 0.304687,0.5390625 0.708984,0.9785157 1.21875,1.3125 0.506835,0.3369141 1.072265,0.5800782 1.699218,0.7265625 0.624024,0.1494141 1.256836,0.2226563 1.898438,0.2226563 1.154297,0 2.182617,-0.1992188 3.082031,-0.5976563 0.896484,-0.3984375 1.652344,-0.9404296 2.261719,-1.6289062 0.609375,-0.6855469 1.069336,-1.4794922 1.382812,-2.3789063 0.310547,-0.8964843 0.46875,-1.8457031 0.46875,-2.8476562 z m 9.858399,-1.664063 c 0,-1.702148 0.284179,-3.27246 0.855468,-4.710937 0.56836,-1.435547 1.376954,-2.683594 2.425782,-3.738281 1.045898,-1.054688 2.302734,-1.87793 3.773437,-2.472657 1.467774,-0.591796 3.117188,-0.890625 4.945313,-0.890625 1.5,0 3.026367,0.328125 4.582031,0.984375 1.552734,0.65625 2.806641,1.625977 3.761719,2.90625 l -2.554688,1.828125 c -0.533203,-0.873046 -1.318359,-1.58789 -2.355469,-2.144531 -1.040039,-0.553711 -2.167968,-0.832031 -3.386718,-0.832031 -1.3125,0 -2.496094,0.231445 -3.550782,0.691406 -1.054687,0.462891 -1.96289,1.101563 -2.71875,1.921875 -0.758789,0.820313 -1.335937,1.78125 -1.734375,2.882813 -0.398437,1.101562 -0.597656,2.293945 -0.597656,3.574218 0,1.2832036 0.199219,2.4667974 0.597656,3.5507817 0.398438,1.0869141 0.966797,2.0361329 1.710938,2.8476563 0.741211,0.8144531 1.640625,1.453125 2.695312,1.921875 1.054688,0.46875 2.238282,0.703125 3.550782,0.703125 1.435547,0 2.651367,-0.2724609 3.644531,-0.8203125 0.990234,-0.5449219 1.807617,-1.2480469 2.449219,-2.109375 l 2.4375,1.828125 c -0.955078,1.171875 -2.126953,2.1152344 -3.515625,2.82421875 -1.391602,0.70898437 -3.064453,1.06640625 -5.015625,1.06640625 -1.828125,0 -3.477539,-0.29882813 -4.945313,-0.890625 -1.470703,-0.59179688 -2.727539,-1.4179688 -3.773437,-2.4726563 -1.048828,-1.0546875 -1.857422,-2.3027343 -2.425782,-3.75 -0.571289,-1.4443359 -0.855468,-3.0117187 -0.855468,-4.6992192 z m 24,0 c 0,-1.702148 0.284179,-3.27246 0.855468,-4.710937 0.56836,-1.435547 1.365235,-2.683594 2.390625,-3.738281 1.022461,-1.054688 2.226563,-1.87793 3.609375,-2.472657 1.382812,-0.591796 2.871092,-0.890625 4.464842,-0.890625 1.76367,0 3.31934,0.298829 4.66406,0.890625 1.3418,0.594727 2.46094,1.394532 3.35157,2.402344 0.89062,1.007813 1.57031,2.185547 2.03906,3.527344 0.46875,1.344727 0.70312,2.783203 0.70312,4.3125 0,0.735352 -0.0176,1.250977 -0.0469,1.546875 H 95.421367 c 0.0293,1.1103516 0.251953,2.1621094 0.667969,3.1523437 0.413086,0.9931641 0.990234,1.8574219 1.734375,2.5898438 0.741211,0.7353516 1.608398,1.3212891 2.601559,1.7578125 0.99024,0.4394531 2.05664,0.65625 3.19922,0.65625 1.70215,0 3.16992,-0.3925781 4.40625,-1.1835938 1.2334,-0.7880859 2.1709,-1.6904296 2.8125,-2.7070312 l 2.4375,1.921875 c -1.34472,1.6875 -2.82422,2.9033203 -4.4414,3.64453125 -1.61719,0.74121094 -3.35743,1.11328125 -5.21485,1.11328125 -1.6582,0 -3.19629,-0.29882813 -4.617185,-0.890625 -1.423828,-0.59179688 -2.648438,-1.4179688 -3.679688,-2.4726563 -1.03125,-1.0546875 -1.839844,-2.3027343 -2.425781,-3.75 -0.585938,-1.4443359 -0.878906,-3.0117187 -0.878906,-4.6992192 z m 18.75,-1.734375 c -0.0937,-2.109375 -0.77051,-3.858398 -2.02734,-5.25 -1.25977,-1.388671 -3.0586,-2.085937 -5.40235,-2.085937 -1.0957,0 -2.10351,0.199219 -3.02344,0.597656 -0.922847,0.398438 -1.74023,0.94336 -2.449214,1.628906 -0.711914,0.688477 -1.274414,1.473633 -1.6875,2.355469 -0.416016,0.884766 -0.65332,1.801758 -0.714844,2.753906 z m 0,0"
         style="fill:#9900ff;fill-opacity:1;fill-rule:nonzero;stroke:none"
         aria-label="Trace"
         transform="matrix(1.3333333,0,0,1.3333333,343.33455,162.82672)"
         clip-path="url(#clipPath9)" />
    </g>
  </g>
</svg>
