<?xml version="1.0" encoding="UTF-8" standalone="no"?>
<!-- Created with Inkscape (http://www.inkscape.org/) -->

<svg
   width="100"
   height="100"
   viewBox="0 0 100 10"
   version="1.1"
   id="svg1"
   inkscape:version="1.3.2 (091e20e, 2023-11-25, custom)"
   sodipodi:docname="logo.svg"
   xmlns:inkscape="http://www.inkscape.org/namespaces/inkscape"
   xmlns:sodipodi="http://sodipodi.sourceforge.net/DTD/sodipodi-0.dtd"
   xmlns="http://www.w3.org/2000/svg"
   xmlns:svg="http://www.w3.org/2000/svg">
  <sodipodi:namedview
     id="namedview1"
     pagecolor="#ffffff"
     bordercolor="#8C25F4"
     borderopacity="0.25"
     inkscape:showpageshadow="2"
     inkscape:pageopacity="0.0"
     inkscape:pagecheckerboard="0"
     inkscape:deskcolor="#d1d1d1"
     inkscape:document-units="mm"
     inkscape:zoom="2.768771"
     inkscape:cx="213.4521"
     inkscape:cy="70.247773"
     inkscape:window-width="1920"
     inkscape:window-height="991"
     inkscape:window-x="-9"
     inkscape:window-y="-9"
     inkscape:window-maximized="1"
     inkscape:current-layer="g2" />
  <defs
     id="defs1">
    <clipPath
       clipPathUnits="userSpaceOnUse"
       id="clipPath3">
      <path
         d="M 9.12e-6,0 H 612.00001 V 792 H 9.12e-6 Z"
         transform="matrix(1,0,0,-1,-70.824002,674.86001)"
         clip-rule="evenodd"
         id="path3" />
    </clipPath>
    <clipPath
       clipPathUnits="userSpaceOnUse"
       id="clipPath5">
      <path
         d="M 9.12e-6,0 H 612.00001 V 792 H 9.12e-6 Z"
         transform="matrix(1,0,0,-1,-98.784002,674.86001)"
         clip-rule="evenodd"
         id="path5" />
    </clipPath>
    <clipPath
       clipPathUnits="userSpaceOnUse"
       id="clipPath7">
      <path
         d="M 9.12e-6,0 H 612.00001 V 792 H 9.12e-6 Z"
         transform="matrix(1,0,0,-1,-215.33001,674.86001)"
         clip-rule="evenodd"
         id="path7" />
    </clipPath>
    <clipPath
       clipPathUnits="userSpaceOnUse"
       id="clipPath9">
      <path
         d="M 9.12e-6,0 H 612.00001 V 792 H 9.12e-6 Z"
         transform="matrix(1,0,0,-1,-238.73001,674.86001)"
         clip-rule="evenodd"
         id="path9" />
    </clipPath>
  </defs>
  <g
     inkscape:label="Ebene 1"
     inkscape:groupmode="layer"
     id="layer1">
    <g
       id="g2"
       transform="matrix(2.1,0,0,2.1,-240,-290)">
      <path
         id="path2"
         d="m 20.040258,-20.507188 0.04687,-0.585937 c 0.04687,-0.75 0.07031,-1.397461 0.07031,-1.945313 0,-2.953125 -0.392578,-5.097656 -1.171875,-6.433593 -0.782226,-1.335938 -2.000976,-2.003907 -3.65625,-2.003907 -1.142578,0 -2.200195,0.269532 -3.175781,0.808594 -0.978516,0.539063 -1.933594,1.371094 -2.8710937,2.496094 h -1.6875 v -1.945313 c 1.4824219,-1.045898 2.6367187,-1.792968 3.4570317,-2.238281 0.820312,-0.445312 1.640625,-0.776367 2.460937,-0.996094 0.820313,-0.216796 1.713867,-0.328125 2.683594,-0.328125 2.607422,0 4.561523,0.887696 5.859375,2.660157 1.294922,1.77539 1.945312,4.458984 1.945312,8.050781 0,1.423828 -0.125976,3.114258 -0.375,5.074219 -0.251953,1.96289 -0.673828,4.004883 -1.265625,6.128906 -0.594726,2.1269531 -1.283203,3.9316406 -2.0625,5.4140625 -0.782226,1.4853516 -1.649414,2.7128906 -2.601562,3.6796875 -0.955078,0.9697266 -2.050781,1.71972656 -3.292969,2.25 -1.242187,0.53027344 -2.645508,0.796875 -4.207031,0.796875 -2.3437502,0 -4.2011721,-0.703125 -5.5664064,-2.109375 C 3.2619375,-3.14 2.5793203,-5.2025 2.5793203,-7.92125 c 0,-2.452148 0.515625,-4.810547 1.546875,-7.078125 1.03125,-2.264648 2.4433594,-4.066406 4.2421875,-5.402344 1.7958982,-1.335937 3.7646482,-2.003906 5.9062502,-2.003906 1.125,0 2.109375,0.128906 2.953125,0.386719 0.84375,0.257812 1.78125,0.761718 2.8125,1.511718 z m -1.125,4.5 c 0,-1.59375 -0.325195,-2.748046 -0.972656,-3.46875 -0.650391,-0.717773 -1.637696,-1.078125 -2.964844,-1.078125 -1.453125,0 -2.800781,0.574219 -4.042969,1.722657 -1.2421874,1.148437 -2.2558593,2.871093 -3.0351562,5.167968 -0.7822265,2.296875 -1.171875,4.570313 -1.171875,6.820313 0,1.40625 0.1523438,2.5048828 0.4570313,3.2929687 0.3046875,0.7910157 0.7060547,1.3330079 1.2070312,1.6289063 0.4980469,0.2988281 1.125,0.4453125 1.8749997,0.4453125 1.6875,0 3.128907,-0.6738281 4.324219,-2.0273438 1.195313,-1.3505859 2.214844,-3.3808593 3.058594,-6.09375 0.84375,-2.7099607 1.265625,-4.8457027 1.265625,-6.4101567 z m 0,0"
         style="fill:#9227FF;fill-opacity:1;fill-rule:nonzero;stroke:none"
         aria-label="𝜕"
         transform="matrix(1.3333333,0,0,1.3333333,119.45988,162.82672)"
         clip-path="url(#clipPath3)" />
    </g>
  </g>
</svg>
